<?xml version="1.0" encoding="utf-8"?>
<!-- Generator: Adobe Illustrator 26.4.1, SVG Export Plug-In . SVG Version: 6.00 Build 0)  -->
<svg version="1.1" id="Laag_1" xmlns="http://www.w3.org/2000/svg" xmlns:xlink="http://www.w3.org/1999/xlink" x="0px" y="0px"
	 viewBox="0 0 1140.99 209.82" style="enable-background:new 0 0 1140.99 209.82;" xml:space="preserve">
<style type="text/css">
	.st0{fill:#090B09;}
	.st1{fill:#8DBC22;stroke:#8EBD22;stroke-miterlimit:10;}
	.st2{fill:#FFFFFF;}
	.st3{fill:#8EBD22;}
</style>
<circle class="st0" cx="104.91" cy="104.91" r="104.91"/>
<g>
	<path class="st1" d="M307.76,143.69l-23.52,52.77h-3.84l-23.52-52.77h4.22l21.33,47.79l21.33-47.79H307.76z"/>
	<path class="st1" d="M371.56,192.99v3.47h-36.41v-52.77h35.28v3.47h-31.44v20.81h28.12v3.39h-28.12v21.63H371.56z"/>
	<path class="st1" d="M441.08,196.46l-12.59-17.64c-1.66,0.23-3.32,0.38-5.13,0.38h-15.08v17.26h-3.84v-52.77h18.92
		c13.27,0,21.26,6.63,21.26,17.79c0,8.37-4.52,14.17-12.36,16.51l13.19,18.47H441.08z M423.37,175.8c11.31,0,17.34-5.28,17.34-14.32
		c0-9.12-6.03-14.32-17.34-14.32h-15.08v28.65H423.37z"/>
	<path class="st1" d="M514.45,192.99v3.47h-42.52v-2.71l36.41-46.59h-35.96v-3.47h41.24v2.71l-36.34,46.59H514.45z"/>
	<path class="st1" d="M581.56,192.99v3.47h-36.41v-52.77h35.28v3.47H549v20.81h28.12v3.39H549v21.63H581.56z"/>
	<path class="st1" d="M630.13,170.45l-11.84,12.14v13.87h-3.84v-52.77h3.84v33.92l32.94-33.92h4.67l-23.22,23.97l24.8,28.8h-4.67
		L630.13,170.45z"/>
	<path class="st1" d="M722.72,192.99v3.47h-36.41v-52.77h35.28v3.47h-31.44v20.81h28.12v3.39h-28.12v21.63H722.72z"/>
	<path class="st1" d="M792.25,196.46l-12.59-17.64c-1.66,0.23-3.32,0.38-5.13,0.38h-15.08v17.26h-3.84v-52.77h18.92
		c13.27,0,21.26,6.63,21.26,17.79c0,8.37-4.52,14.17-12.36,16.51l13.19,18.47H792.25z M774.53,175.8c11.31,0,17.34-5.28,17.34-14.32
		c0-9.12-6.03-14.32-17.34-14.32h-15.08v28.65H774.53z"/>
	<path class="st1" d="M828.75,143.69h3.84v52.77h-3.84V143.69z"/>
	<path class="st1" d="M912.82,143.69v52.77h-3.17l-35.96-45.83v45.83h-3.85v-52.77h3.24l35.88,45.83v-45.83H912.82z"/>
	<path class="st1" d="M987.77,170.3h3.69v19.75c-4.75,4.52-11.61,6.79-18.85,6.79c-15.91,0-27.59-11.38-27.59-26.76
		c0-15.38,11.69-26.76,27.67-26.76c7.61,0,14.32,2.41,19,7.24l-2.41,2.56c-4.6-4.52-10.1-6.26-16.51-6.26
		c-13.72,0-23.9,9.95-23.9,23.22c0,13.19,10.18,23.22,23.9,23.22c5.58,0,10.71-1.36,15-4.82V170.3z"/>
	<path class="st1" d="M1063.63,192.99v3.47h-36.41v-52.77h35.28v3.47h-31.43v20.81h28.12v3.39h-28.12v21.63H1063.63z"/>
	<path class="st1" d="M1139.49,143.69v52.77h-3.17l-35.96-45.83v45.83h-3.85v-52.77h3.24l35.88,45.83v-45.83H1139.49z"/>
</g>
<g>
	<path class="st0" d="M258.25,22.19h43.4c31.26,0,52.69,18.84,52.69,47.78s-21.43,47.77-52.69,47.77h-43.4V22.19z M300.56,99.59
		c18.98,0,31.39-11.32,31.39-29.62s-12.42-29.62-31.39-29.62h-20.2v59.24H300.56z"/>
	<path class="st0" d="M378.57,69.97c0-28.4,22.12-49.42,52.28-49.42c30.03,0,52.28,20.89,52.28,49.42s-22.25,49.41-52.28,49.41
		C400.69,119.38,378.57,98.36,378.57,69.97z M460.75,69.97c0-18.16-12.83-30.58-29.89-30.58c-17.06,0-29.89,12.42-29.89,30.58
		c0,18.15,12.83,30.58,29.89,30.58C447.92,100.55,460.75,88.12,460.75,69.97z"/>
	<path class="st0" d="M601,22.19v95.56h-18.16l-47.63-58.01v58.01h-21.84V22.19h18.29l47.5,58.01V22.19H601z"/>
	<path class="st0" d="M631.23,69.97c0-28.81,22.12-49.42,51.87-49.42c16.52,0,30.3,6,39.31,16.93l-14.2,13.1
		c-6.41-7.38-14.47-11.19-24.02-11.19c-17.88,0-30.58,12.55-30.58,30.58c0,18.01,12.7,30.58,30.58,30.58
		c9.55,0,17.61-3.83,24.02-11.33l14.2,13.1c-9.01,11.06-22.79,17.06-39.45,17.06C653.35,119.38,631.23,98.77,631.23,69.97z"/>
	<path class="st0" d="M785.7,80.2l-12.83,13.38v24.16h-21.97V22.19h21.97v44.64l42.31-44.64h24.57l-39.58,42.6l41.9,52.96h-25.8
		L785.7,80.2z"/>
	<path class="st0" d="M939.47,99.99v17.75h-73.98V22.19h72.2v17.75h-50.23v20.75h44.37v17.21h-44.37v22.11H939.47z"/>
	<path class="st0" d="M970.68,22.19h22.11v77.54h47.92v18.01h-70.02V22.19z"/>
	<path class="st0" d="M1058.67,108.32l7.51-16.65c8.05,5.87,20.06,9.96,31.53,9.96c13.1,0,18.42-4.37,18.42-10.23
		c0-17.88-55.56-5.6-55.56-41.09c0-16.24,13.1-29.76,40.27-29.76c12.01,0,24.3,2.86,33.16,8.47l-6.82,16.79
		c-8.87-5.05-18.01-7.51-26.47-7.51c-13.11,0-18.16,4.91-18.16,10.92c0,17.62,55.56,5.46,55.56,40.55
		c0,15.97-13.25,29.62-40.54,29.62C1082.41,119.38,1067.13,114.88,1058.67,108.32z"/>
</g>
<g>
	<g>
		<path class="st2" d="M113.22,172.88H60.21V69.84h9.12v93.91h43.88c13.03,0,26.2-3.51,35.24-9.38
			c11.97-7.78,24.75-24.11,24.75-51.1c0-32.47-18.03-44.55-25.77-49.27c-9.21-5.6-20.02-8.56-31.27-8.56L44.1,45.23l0.03-9.12
			l72.05,0.22c12.91,0,25.36,3.42,36,9.89c9.07,5.52,30.16,19.96,30.16,57.07c0,30.63-14.93,49.66-28.91,58.75
			C142.97,168.82,127.94,172.88,113.22,172.88z"/>
	</g>
	<g>
		<path class="st3" d="M53.26,172.88h-9.12V53.05h70.93c9.91,0,19.39,2.76,27.41,7.97c9.51,6.18,20.86,20.69,20.86,43.3
			c0,23.19-11.84,38.45-21.77,44.49c-7.65,4.66-16.62,7.12-25.92,7.12H76.78v-9.12h38.85c7.63,0,14.95-2,21.18-5.79
			c11.53-7.02,17.38-21.48,17.38-36.7c0-14.87-5.62-28.45-16.7-35.65c-6.54-4.25-14.3-6.5-22.44-6.5h-61.8V172.88z"/>
	</g>
</g>
</svg>
